<svg width="144" height="144" viewBox="0 0 144 144" fill="none" xmlns="http://www.w3.org/2000/svg">
<rect width="144" height="144" rx="34" fill="#8415C9"/>
<path d="M73.2678 84.1605C73.2712 88.5517 73.264 92.8626 73.2891 97.1733C73.293 97.8366 73.3797 98.5132 73.5413 99.1595C74.2171 101.862 76.1875 103.309 79.6517 103.435C83.4099 103.571 87.1751 103.546 90.9373 103.59V103.59C91.5242 103.597 92 104.066 92 104.653C92 109.551 92 114.394 92 119.283C92 119.649 91.7238 119.986 91.3582 119.986V119.986C86.6094 119.987 81.86 120.026 77.112 119.97C73.1574 119.923 69.2869 119.36 65.5488 118.095C58.4689 115.699 54.2019 111.057 52.8455 104.243C52.3303 101.654 52.0929 98.9853 52.0737 96.3509C51.9917 85.1324 52.0682 73.9129 52.0001 62.6943C51.992 61.3517 52.4416 60.3674 53.311 59.3796C57.2531 54.9009 61.1519 50.3897 65.0732 45.8953V45.8953C66.3761 44.4019 65.3375 42.071 63.3556 42.071C61.2849 42.071 59.2235 42.071 57.1626 42.071C54.3592 42.071 52.0865 39.7984 52.0865 36.995C52.0865 35.6725 52.0865 34.3533 52.0865 33.0355C52.0865 28.0453 56.1318 24 61.122 24C61.9966 24 62.8717 24 63.7476 24C68.991 24 73.2416 28.2506 73.2416 33.4939C73.2416 33.5596 73.2416 33.6253 73.2416 33.691C73.2416 38.8255 77.4039 42.9879 82.5385 42.9879C82.9755 42.9879 83.4124 42.9879 83.8492 42.9879C88.2598 42.9879 91.8353 46.56 91.8353 50.9706V50.9706C91.8353 55.3812 88.2598 58.9601 83.8492 58.9601C83.4169 58.9601 82.9844 58.9601 82.5516 58.9601C77.4243 58.9601 73.2678 63.1166 73.2678 68.2439C73.2678 73.5468 73.2678 78.8376 73.2678 84.1605Z" fill="white"/>
</svg>
