<svg width="578" height="96" viewBox="0 0 578 96" fill="none" xmlns="http://www.w3.org/2000/svg">
<g clip-path="url(#clip0_397_11)">
<path d="M48.6719 62.3843C48.6719 55.6476 50.0404 49.7726 52.7775 44.7593C55.5146 39.6676 59.3074 35.751 64.156 33.0093C69.0046 30.1893 74.5569 28.7793 80.8131 28.7793C88.868 28.7793 95.5152 30.816 100.755 34.8893C106.073 38.8843 109.631 44.5243 111.429 51.8093H93.7165C92.7781 48.9893 91.175 46.796 88.9071 45.2293C86.7174 43.5843 83.9803 42.7618 80.6958 42.7618C76.0037 42.7618 72.2891 44.4851 69.552 47.9318C66.8148 51.3001 65.4463 56.1176 65.4463 62.3843C65.4463 68.5726 66.8148 73.3901 69.552 76.8368C72.2891 80.2051 76.0037 81.8893 80.6958 81.8893C87.343 81.8893 91.6832 78.9126 93.7165 72.9593H111.429C109.631 80.0093 106.073 85.6101 100.755 89.7618C95.437 93.9135 88.7898 95.9893 80.8131 95.9893C74.5569 95.9893 69.0046 94.6185 64.156 91.8768C59.3074 89.0568 55.5146 85.1401 52.7775 80.1268C50.0404 75.0351 48.6719 69.121 48.6719 62.3843ZM160.059 28.8968C164.986 28.8968 169.366 29.9935 173.197 32.1868C177.029 34.3018 180.001 37.4743 182.112 41.7043C184.302 45.856 185.397 50.8693 185.397 56.7443V94.9318H168.974V58.9768C168.974 53.8068 167.684 49.851 165.103 47.1093C162.523 44.2893 159.004 42.8793 154.546 42.8793C150.01 42.8793 146.413 44.2893 143.754 47.1093C141.173 49.851 139.883 53.8068 139.883 58.9768V94.9318H123.46V7.98177H139.883V37.9443C141.994 35.1243 144.81 32.931 148.329 31.3643C151.848 29.7193 155.759 28.8968 160.059 28.8968ZM209.342 22.0818C206.449 22.0818 204.025 21.181 202.069 19.3793C200.192 17.4993 199.254 15.1885 199.254 12.4468C199.254 9.7051 200.192 7.43343 202.069 5.63176C204.025 3.75177 206.449 2.81177 209.342 2.81177C212.236 2.81177 214.621 3.75177 216.497 5.63176C218.453 7.43343 219.43 9.7051 219.43 12.4468C219.43 15.1885 218.453 17.4993 216.497 19.3793C214.621 21.181 212.236 22.0818 209.342 22.0818ZM217.436 29.8368V94.9318H201.013V29.8368H217.436ZM252.783 43.3493V74.8393C252.783 77.0326 253.29 78.6385 254.308 79.6568C255.402 80.5968 257.201 81.0668 259.704 81.0668H267.328V94.9318H257.006C243.164 94.9318 236.243 88.1951 236.243 74.7218V43.3493H228.501V29.8368H236.243V13.7393H252.783V29.8368H267.328V43.3493H252.783ZM340.49 29.8368V94.9318H323.95V86.7068C321.838 89.5268 319.063 91.7593 315.621 93.4043C312.259 94.971 308.583 95.7543 304.595 95.7543C299.512 95.7543 295.015 94.6968 291.105 92.5818C287.195 90.3885 284.106 87.216 281.838 83.0643C279.648 78.8343 278.553 73.821 278.553 68.0243V29.8368H294.976V65.6743C294.976 70.8443 296.266 74.8393 298.847 77.6593C301.427 80.401 304.947 81.7718 309.404 81.7718C313.941 81.7718 317.498 80.401 320.079 77.6593C322.659 74.8393 323.95 70.8443 323.95 65.6743V29.8368H340.49ZM392.706 28.8968C400.448 28.8968 406.703 31.3643 411.474 36.2993C416.244 41.156 418.63 47.971 418.63 56.7443V94.9318H402.207V58.9768C402.207 53.8068 400.917 49.851 398.336 47.1093C395.756 44.2893 392.237 42.8793 387.779 42.8793C383.243 42.8793 379.646 44.2893 376.987 47.1093C374.406 49.851 373.116 53.8068 373.116 58.9768V94.9318H356.694V29.8368H373.116V37.9443C375.305 35.1243 378.081 32.931 381.445 31.3643C384.885 29.7193 388.639 28.8968 392.706 28.8968ZM430.023 62.1493C430.023 55.5693 431.314 49.7335 433.894 44.6418C436.554 39.5501 440.151 35.6335 444.686 32.8918C449.223 30.1501 454.267 28.7793 459.819 28.7793C464.042 28.7793 468.069 29.7193 471.901 31.5993C475.733 33.401 478.783 35.8293 481.051 38.8843V7.98177H497.708V94.9318H481.051V85.2968C479.018 88.5085 476.163 91.0935 472.487 93.0518C468.813 95.0101 464.55 95.9893 459.701 95.9893C454.227 95.9893 449.223 94.5793 444.686 91.7593C440.151 88.9393 436.554 84.9835 433.894 79.8918C431.314 74.7218 430.023 68.8076 430.023 62.1493ZM481.168 62.3843C481.168 58.3893 480.386 54.9818 478.822 52.1618C477.258 49.2635 475.147 47.0701 472.487 45.5818C469.829 44.0151 466.974 43.2318 463.924 43.2318C460.874 43.2318 458.059 43.976 455.478 45.4643C452.898 46.9526 450.786 49.146 449.144 52.0443C447.581 54.8643 446.798 58.2326 446.798 62.1493C446.798 66.066 447.581 69.5126 449.144 72.4893C450.786 75.3876 452.898 77.6201 455.478 79.1868C458.138 80.7535 460.953 81.5368 463.924 81.5368C466.974 81.5368 469.829 80.7926 472.487 79.3043C475.147 77.7376 477.258 75.5443 478.822 72.7243C480.386 69.826 481.168 66.3793 481.168 62.3843ZM509.524 62.1493C509.524 55.5693 510.815 49.7335 513.395 44.6418C516.055 39.5501 519.613 35.6335 524.07 32.8918C528.607 30.1501 533.651 28.7793 539.202 28.7793C544.051 28.7793 548.274 29.7585 551.871 31.7168C555.547 33.6751 558.48 36.1426 560.669 39.1193V29.8368H577.209V94.9318H560.669V85.4143C558.557 88.4693 555.625 91.0151 551.871 93.0518C548.196 95.0101 543.934 95.9893 539.085 95.9893C533.611 95.9893 528.607 94.5793 524.07 91.7593C519.613 88.9393 516.055 84.9835 513.395 79.8918C510.815 74.7218 509.524 68.8076 509.524 62.1493ZM560.669 62.3843C560.669 58.3893 559.887 54.9818 558.323 52.1618C556.76 49.2635 554.648 47.0701 551.988 45.5818C549.33 44.0151 546.475 43.2318 543.425 43.2318C540.375 43.2318 537.56 43.976 534.979 45.4643C532.399 46.9526 530.287 49.146 528.645 52.0443C527.082 54.8643 526.299 58.2326 526.299 62.1493C526.299 66.066 527.082 69.5126 528.645 72.4893C530.287 75.3876 532.399 77.6201 534.979 79.1868C537.639 80.7535 540.454 81.5368 543.425 81.5368C546.475 81.5368 549.33 80.7926 551.988 79.3043C554.648 77.7376 556.76 75.5443 558.323 72.7243C559.887 69.826 560.669 66.3793 560.669 62.3843Z" fill="#8415C9"/>
</g>
<path d="M21.2678 60.1605C21.2712 64.5517 21.264 68.8626 21.2891 73.1733C21.293 73.8366 21.3797 74.5132 21.5413 75.1595C22.2171 77.8616 24.1875 79.3086 27.6517 79.4347C31.4099 79.5715 35.1751 79.5458 38.9373 79.59V79.59C39.5242 79.5969 40 80.0663 40 80.6532C40 85.551 40 90.3937 40 95.283C40 95.6485 39.7238 95.9859 39.3582 95.986V95.986C34.6094 95.9874 29.86 96.0255 25.112 95.9697C21.1574 95.9233 17.2869 95.3597 13.5488 94.0947C6.4689 91.6989 2.20187 87.057 0.845495 80.2426C0.330255 77.6541 0.092921 74.9853 0.073684 72.3509C-0.00830097 61.1324 0.0682014 49.9129 0.000108427 38.6943C-0.0080254 37.3517 0.441583 36.3674 1.31102 35.3796C5.25311 30.9009 9.15194 26.3897 13.0732 21.8953V21.8953C14.3761 20.4019 13.3375 18.071 11.3556 18.071C9.28492 18.071 7.22348 18.071 5.16257 18.071C2.35915 18.071 0.0865369 15.7984 0.0865369 12.995C0.0865369 11.6725 0.0865369 10.3533 0.0865369 9.0355C0.0865369 4.04533 4.13185 0 9.12202 0C9.99658 0 10.8717 0 11.7476 0C16.991 0 21.2416 4.25057 21.2416 9.49393C21.2416 9.55962 21.2416 9.6253 21.2416 9.69099C21.2416 14.8255 25.4039 18.9879 30.5385 18.9879C30.9755 18.9879 31.4124 18.9879 31.8492 18.9879C36.2598 18.9879 39.8353 22.56 39.8353 26.9706V26.9706C39.8353 31.3812 36.2598 34.9601 31.8492 34.9601C31.4169 34.9601 30.9844 34.9601 30.5516 34.9601C25.4243 34.9601 21.2678 39.1166 21.2678 44.2439C21.2678 49.5468 21.2678 54.8376 21.2678 60.1605Z" fill="#8415C9"/>
<defs>
<clipPath id="clip0_397_11">
<rect x="48" y="2" width="530" height="94" rx="24" fill="white"/>
</clipPath>
</defs>
</svg>
